<!-- Generated by IcoMoon.io -->
<svg version="1.1" xmlns="http://www.w3.org/2000/svg" width="33" height="32" viewBox="0 0 33 32">
<title>ep</title>
<path fill="#326ce5" d="M16.381 0.847c-0.292 0.015-0.564 0.088-0.808 0.207l0.012-0.005-10.861 5.189c-0.564 0.274-0.977 0.777-1.121 1.383l-0.003 0.014-2.679 11.657c-0.033 0.138-0.052 0.296-0.052 0.459 0 0.417 0.125 0.804 0.339 1.128l-0.005-0.008c0.041 0.063 0.080 0.117 0.121 0.168l-0.003-0.004 7.517 9.347c0.384 0.474 0.968 0.775 1.623 0.775 0 0 0 0 0 0l12.055-0.003c0 0 0.001 0 0.002 0 0.655 0 1.238-0.3 1.619-0.77l0.003-0.004 7.515-9.348c0.283-0.349 0.454-0.797 0.454-1.285 0-0.163-0.019-0.321-0.055-0.472l0.003 0.014-2.684-11.657c-0.146-0.621-0.56-1.124-1.111-1.392l-0.012-0.005-10.862-5.187c-0.263-0.129-0.573-0.204-0.901-0.204-0.037 0-0.074 0.001-0.111 0.003l0.005-0z"></path>
<path fill="#fff" d="M16.375 0.003c-0.308 0.017-0.594 0.094-0.852 0.22l0.013-0.006-11.466 5.477c-0.595 0.289-1.032 0.82-1.183 1.46l-0.003 0.015-2.828 12.305c-0.035 0.146-0.055 0.313-0.055 0.486 0 0.44 0.132 0.849 0.358 1.191l-0.005-0.008c0.044 0.066 0.085 0.122 0.128 0.177l-0.003-0.004 7.935 9.867c0.405 0.5 1.022 0.818 1.714 0.818 0 0 0 0 0 0l12.726-0.003c0 0 0.001 0 0.002 0 0.691 0 1.307-0.317 1.709-0.813l0.003-0.004 7.933-9.869c0.298-0.368 0.478-0.841 0.478-1.356 0-0.171-0.020-0.338-0.058-0.498l0.003 0.015-2.832-12.307c-0.155-0.655-0.592-1.185-1.173-1.468l-0.013-0.006-11.466-5.477c-0.278-0.136-0.605-0.215-0.951-0.215-0.040 0-0.079 0.001-0.118 0.003l0.005-0zM16.38 0.847c0.032-0.002 0.069-0.003 0.106-0.003 0.328 0 0.638 0.075 0.914 0.209l-0.012-0.005 10.862 5.187c0.564 0.274 0.977 0.777 1.121 1.383l0.003 0.014 2.684 11.657c0.033 0.138 0.052 0.296 0.052 0.458 0 0.488-0.171 0.936-0.457 1.289l0.003-0.004-7.515 9.348c-0.384 0.473-0.968 0.774-1.622 0.774-0.001 0-0.001 0-0.002 0l-12.055 0.003c-0 0-0 0-0 0-0.655 0-1.24-0.301-1.62-0.771l-0.003-0.004-7.517-9.347c-0.038-0.047-0.077-0.101-0.113-0.156l-0.005-0.008c-0.209-0.316-0.334-0.704-0.334-1.12 0-0.163 0.019-0.321 0.055-0.473l-0.003 0.014 2.679-11.657c0.146-0.621 0.56-1.124 1.111-1.392l0.012-0.005 10.861-5.189c0.232-0.114 0.504-0.186 0.791-0.201l0.005-0z"></path>
<path fill="#fff" d="M6.573 19.667h5.318v3.733h-5.318z"></path>
<path fill="#fff" d="M13.83 19.667h5.318v3.733h-5.318z"></path>
<path fill="#fff" d="M21.087 19.667h5.318v3.733h-5.318z"></path>
<path fill="#fff" d="M12.276 8.6h8.426v3.733h-8.426z"></path>
<path fill="#fff" d="M13.312 13.192l0.842 0.843-3.763 3.76-0.842-0.843 3.762-3.76z"></path>
<path fill="#fff" d="M8.876 18.487l0.952-3.613 2.653 2.631-1.802 0.491z"></path>
<path fill="#fff" d="M18.866 13.192l-0.842 0.843 3.762 3.76 0.842-0.843-3.762-3.76z"></path>
<path fill="#fff" d="M23.301 18.487l-0.952-3.613-2.653 2.631 1.802 0.491z"></path>
<path fill="#fff" d="M16.93 13.516l-1.192-0.006-0.033 4.112 1.192 0.006 0.033-4.112z"></path>
<path fill="#fff" d="M16.278 19.185l1.902-3.216-3.736-0.040 0.917 1.628z"></path>
</svg>
