<!-- Generated by IcoMoon.io -->
<svg version="1.1" xmlns="http://www.w3.org/2000/svg" width="16" height="16" viewBox="0 0 16 16">
<title>psp</title>
<path fill="#326ce5" d="M8.19 0.423c-0.146 0.008-0.282 0.044-0.404 0.103l0.006-0.003-5.43 2.595c-0.282 0.137-0.489 0.388-0.56 0.692l-0.001 0.007-1.34 5.828c-0.017 0.069-0.026 0.148-0.026 0.229 0 0.208 0.062 0.402 0.169 0.564l-0.002-0.004c0.021 0.032 0.040 0.058 0.061 0.084l-0.002-0.002 3.759 4.673c0.192 0.237 0.484 0.388 0.812 0.388 0 0 0 0 0 0l6.028-0.001c0 0 0.001 0 0.001 0 0.327 0 0.619-0.15 0.81-0.385l0.002-0.002 3.757-4.674c0.141-0.174 0.227-0.399 0.227-0.642 0-0.081-0.009-0.16-0.027-0.236l0.001 0.007-1.342-5.828c-0.073-0.31-0.28-0.562-0.556-0.696l-0.006-0.003-5.431-2.593c-0.132-0.064-0.287-0.102-0.451-0.102-0.019 0-0.037 0-0.055 0.001l0.003-0z"></path>
<path fill="#fff" d="M8.187 0.001c-0.154 0.008-0.297 0.047-0.426 0.11l0.006-0.003-5.733 2.738c-0.297 0.144-0.516 0.41-0.592 0.73l-0.001 0.007-1.414 6.153c-0.018 0.073-0.028 0.157-0.028 0.243 0 0.22 0.066 0.424 0.179 0.595l-0.003-0.004c0.022 0.033 0.042 0.061 0.064 0.088l-0.002-0.002 3.968 4.934c0.203 0.25 0.511 0.409 0.857 0.409 0 0 0 0 0 0l6.363-0.001c0 0 0 0 0.001 0 0.346 0 0.654-0.159 0.855-0.406l0.002-0.002 3.966-4.934c0.149-0.184 0.239-0.421 0.239-0.678 0-0.086-0.010-0.169-0.029-0.249l0.001 0.007-1.416-6.153c-0.077-0.327-0.296-0.593-0.587-0.734l-0.006-0.003-5.733-2.738c-0.139-0.068-0.303-0.108-0.476-0.108-0.020 0-0.039 0.001-0.059 0.002l0.003-0zM8.19 0.424c0.016-0.001 0.034-0.001 0.053-0.001 0.164 0 0.319 0.038 0.457 0.105l-0.006-0.003 5.431 2.593c0.282 0.137 0.489 0.388 0.56 0.692l0.001 0.007 1.342 5.828c0.017 0.069 0.026 0.148 0.026 0.229 0 0.244-0.085 0.468-0.228 0.644l0.002-0.002-3.757 4.674c-0.192 0.237-0.484 0.387-0.811 0.387-0 0-0.001 0-0.001 0l-6.028 0.001c-0 0-0 0-0 0-0.328 0-0.62-0.15-0.81-0.386l-0.002-0.002-3.759-4.673c-0.019-0.024-0.038-0.050-0.057-0.078l-0.002-0.004c-0.105-0.158-0.167-0.352-0.167-0.56 0-0.081 0.010-0.16 0.027-0.236l-0.001 0.007 1.34-5.828c0.073-0.31 0.28-0.562 0.556-0.696l0.006-0.003 5.43-2.595c0.116-0.057 0.252-0.093 0.395-0.101l0.003-0z"></path>
<path fill="#fff" d="M7.237 3.415l-3.464 1.004 3.464 1.005 1.029-0.299c0.47-0.436 1.097-0.706 1.783-0.706 0.167 0 0.329 0.018 0.487 0.048l0.165-0.048z"></path>
<path fill="#fff" d="M3.773 4.805v3.686l2.883 1.597v-1.132c0-0.343 0.14-0.625 0.352-0.853l0.008-2.333z"></path>
<path fill="#fff" d="M7.823 5.661l-0.366 0.109 0.003 0.826c0.060-0.338 0.185-0.654 0.362-0.935zM10.049 6.636c-0.241 0-0.415 0.174-0.415 0.415v0.415h0.83v-0.415c0-0.241-0.174-0.415-0.415-0.415z"></path>
<path fill="#fff" d="M10.051 4.972c-1.051 0-1.904 0.853-1.904 1.904v1.142c-0.419 0-0.762 0.343-0.762 0.762v3.046c0 0.419 0.343 0.758 0.762 0.758h3.808c0.419 0 0.762-0.339 0.762-0.758v-3.046c0-0.419-0.343-0.762-0.762-0.762v-1.142c0-1.051-0.853-1.904-1.904-1.904zM10.051 5.734c0.632 0 1.142 0.51 1.142 1.142v1.142h-2.285v-1.142c0-0.632 0.51-1.142 1.142-1.142z"></path>
</svg>
