<!-- Generated by IcoMoon.io -->
<svg version="1.1" xmlns="http://www.w3.org/2000/svg" width="16" height="16" viewBox="0 0 16 16">
<title>quota</title>
<path fill="#326ce5" d="M8.19 0.423c-0.146 0.008-0.282 0.044-0.404 0.103l0.006-0.003-5.43 2.595c-0.282 0.137-0.489 0.388-0.56 0.692l-0.001 0.007-1.34 5.828c-0.017 0.069-0.026 0.148-0.026 0.229 0 0.208 0.062 0.402 0.169 0.564l-0.002-0.004c0.021 0.032 0.040 0.058 0.061 0.084l-0.002-0.002 3.759 4.673c0.192 0.237 0.484 0.388 0.812 0.388 0 0 0 0 0 0l6.028-0.001c0 0 0.001 0 0.001 0 0.327 0 0.619-0.15 0.81-0.385l0.002-0.002 3.757-4.674c0.141-0.174 0.227-0.399 0.227-0.642 0-0.081-0.009-0.16-0.027-0.236l0.001 0.007-1.342-5.828c-0.073-0.31-0.28-0.562-0.556-0.696l-0.006-0.003-5.431-2.593c-0.132-0.064-0.287-0.102-0.451-0.102-0.019 0-0.037 0-0.055 0.001l0.003-0z"></path>
<path fill="#fff" d="M8.187 0.001c-0.154 0.008-0.297 0.047-0.426 0.11l0.006-0.003-5.733 2.738c-0.297 0.144-0.516 0.41-0.592 0.73l-0.001 0.007-1.414 6.153c-0.018 0.073-0.028 0.157-0.028 0.243 0 0.22 0.066 0.424 0.179 0.595l-0.003-0.004c0.022 0.033 0.042 0.061 0.064 0.088l-0.002-0.002 3.968 4.934c0.203 0.25 0.511 0.409 0.857 0.409 0 0 0 0 0 0l6.363-0.001c0 0 0 0 0.001 0 0.346 0 0.654-0.159 0.855-0.406l0.002-0.002 3.966-4.934c0.149-0.184 0.239-0.421 0.239-0.678 0-0.086-0.010-0.169-0.029-0.249l0.001 0.007-1.416-6.153c-0.077-0.327-0.296-0.593-0.587-0.734l-0.006-0.003-5.733-2.738c-0.139-0.068-0.303-0.108-0.476-0.108-0.020 0-0.039 0.001-0.059 0.002l0.003-0zM8.19 0.424c0.016-0.001 0.034-0.001 0.053-0.001 0.164 0 0.319 0.038 0.457 0.105l-0.006-0.003 5.431 2.593c0.282 0.137 0.489 0.388 0.56 0.692l0.001 0.007 1.342 5.828c0.017 0.069 0.026 0.148 0.026 0.229 0 0.244-0.085 0.468-0.228 0.644l0.002-0.002-3.757 4.674c-0.192 0.237-0.484 0.387-0.811 0.387-0 0-0.001 0-0.001 0l-6.028 0.001c-0 0-0 0-0 0-0.328 0-0.62-0.15-0.81-0.386l-0.002-0.002-3.759-4.673c-0.019-0.024-0.038-0.050-0.057-0.078l-0.002-0.004c-0.105-0.158-0.167-0.352-0.167-0.56 0-0.081 0.010-0.16 0.027-0.236l-0.001 0.007 1.34-5.828c0.073-0.31 0.28-0.562 0.556-0.696l0.006-0.003 5.43-2.595c0.116-0.057 0.252-0.093 0.395-0.101l0.003-0z"></path>
<path fill="#fff" d="M6.281 2.868c-0.008 0-0.288 0.105-0.623 0.233s-0.622 0.238-0.638 0.244c-0.016 0.006-0.029 0.016-0.029 0.024s0.067 0.187 0.148 0.4c0.082 0.213 0.147 0.394 0.145 0.404-0.002 0.012-0.076 0.045-0.227 0.103-0.123 0.047-0.223 0.090-0.221 0.096 0.005 0.015 1.517 0.691 1.541 0.688 0.016-0.002 0.091-0.162 0.361-0.767 0.188-0.421 0.341-0.771 0.341-0.779s-0.004-0.013-0.009-0.011c-0.185 0.074-0.447 0.168-0.458 0.164-0.008-0.003-0.083-0.184-0.166-0.402-0.098-0.256-0.157-0.397-0.166-0.397zM8.247 4.893c-2.019 0-3.8 1.288-4.437 3.207-0.233 0.703-0.292 1.492-0.168 2.236 0.174 1.045 0.708 2.005 1.513 2.721 0.046 0.041 0.087 0.075 0.090 0.075s0.218-0.213 0.477-0.472c0.265-0.265 0.476-0.485 0.483-0.502 0.028-0.075-0.034-0.21-0.147-0.323-0.117-0.117-0.242-0.174-0.321-0.148-0.021 0.007-0.114 0.092-0.254 0.232-0.122 0.122-0.229 0.222-0.239 0.222-0.021 0-0.137-0.143-0.259-0.316-0.278-0.398-0.481-0.848-0.6-1.332-0.039-0.158-0.089-0.457-0.081-0.48 0.004-0.010 0.082-0.013 0.342-0.013 0.365 0 0.386-0.003 0.429-0.057 0.045-0.057 0.068-0.141 0.073-0.264 0.006-0.131-0.011-0.221-0.056-0.297s-0.044-0.077-0.434-0.077c-0.19-0-0.353-0.004-0.361-0.010-0.013-0.008-0.013-0.031 0.003-0.176 0.067-0.614 0.294-1.243 0.633-1.75 0.078-0.117 0.219-0.301 0.231-0.301 0.007 0 0.137 0.124 0.289 0.276l0.277 0.276 0.057-0.006c0.16-0.017 0.371-0.209 0.415-0.38 0.008-0.030 0.011-0.069 0.008-0.086-0.005-0.023-0.080-0.106-0.281-0.308-0.249-0.251-0.274-0.278-0.26-0.295 0.048-0.058 0.338-0.27 0.529-0.386 0.475-0.288 1.117-0.505 1.608-0.543l0.087-0.007 0.003 0.409 0.003 0.408 0.044 0.041c0.126 0.117 0.468 0.121 0.6 0.007l0.042-0.036 0.005-0.41 0.005-0.41 0.084 0.002c0.104 0.002 0.353 0.045 0.543 0.093 0.547 0.139 1.063 0.396 1.503 0.749 0.055 0.045 0.101 0.089 0.101 0.099s-0.122 0.14-0.272 0.289l-0.272 0.272 0.001 0.061c0.002 0.181 0.249 0.428 0.429 0.429l0.061 0.001 0.272-0.272c0.149-0.149 0.277-0.272 0.283-0.272s0.050 0.052 0.098 0.116c0.366 0.49 0.624 1.084 0.728 1.678 0.036 0.205 0.056 0.411 0.042 0.428-0.010 0.012-0.076 0.015-0.369 0.015h-0.357l-0.031 0.026c-0.068 0.057-0.117 0.237-0.103 0.374 0.012 0.111 0.044 0.198 0.090 0.248l0.040 0.043 0.36 0.003c0.356 0.003 0.359 0.003 0.359 0.025 0 0.049-0.035 0.256-0.069 0.41-0.11 0.498-0.336 1.006-0.627 1.413-0.124 0.173-0.224 0.295-0.243 0.295-0.009 0-0.115-0.1-0.237-0.222-0.25-0.25-0.259-0.256-0.355-0.228-0.171 0.050-0.359 0.257-0.375 0.414l-0.006 0.056 0.417 0.425c0.533 0.544 0.54 0.55 0.565 0.537 0.040-0.021 0.301-0.27 0.415-0.395 0.316-0.346 0.552-0.689 0.754-1.094 0.498-0.999 0.618-2.142 0.341-3.235-0.227-0.896-0.739-1.729-1.444-2.348-0.85-0.747-1.941-1.157-3.074-1.157zM7.365 6.82c-0.185 0.001-0.394 0.108-0.454 0.232-0.020 0.042-0.022 0.054-0.011 0.088 0.007 0.022 0.197 0.516 0.424 1.098l0.412 1.058-0.037 0.076c-0.12 0.243-0.075 0.516 0.115 0.707 0.168 0.168 0.409 0.225 0.629 0.148 0.043-0.015 0.11-0.049 0.149-0.076 0.294-0.201 0.352-0.615 0.127-0.891-0.075-0.091-0.154-0.144-0.309-0.207-0.024-0.010-0.072-0.129-0.442-1.080-0.228-0.588-0.422-1.080-0.43-1.093-0.027-0.044-0.075-0.060-0.172-0.060z"></path>
<path fill="#fff" d="M5.1 12.989c-0.181-0.154-0.546-0.582-0.731-0.857-0.317-0.473-0.582-1.126-0.703-1.737-0.086-0.434-0.078-1.307 0.015-1.747 0.379-1.777 1.676-3.144 3.404-3.589 1.293-0.333 2.636-0.101 3.766 0.65 0.343 0.228 0.933 0.799 1.16 1.123 0.883 1.259 1.114 2.781 0.638 4.206-0.22 0.66-0.567 1.225-1.074 1.752l-0.323 0.335-0.478-0.477c-0.28-0.279-0.478-0.502-0.478-0.538 0-0.152 0.254-0.407 0.405-0.407 0.032 0 0.165 0.103 0.295 0.23 0.277 0.268 0.254 0.273 0.52-0.113 0.341-0.494 0.575-1.088 0.668-1.69l0.021-0.137h-0.746l-0.053-0.102c-0.062-0.119-0.051-0.442 0.017-0.524 0.034-0.041 0.114-0.051 0.409-0.051h0.367v-0.125c0-0.326-0.186-0.989-0.394-1.407-0.11-0.22-0.437-0.726-0.47-0.726-0.012 0-0.147 0.125-0.301 0.278-0.246 0.245-0.29 0.276-0.364 0.257-0.13-0.033-0.336-0.236-0.358-0.353-0.017-0.093 0.005-0.127 0.255-0.392 0.316-0.336 0.321-0.299-0.065-0.565-0.483-0.334-1.198-0.612-1.709-0.664l-0.197-0.020-0.019 0.412c-0.014 0.3-0.032 0.425-0.067 0.46-0.072 0.072-0.339 0.087-0.481 0.028l-0.12-0.050v-0.842l-0.121 0.001c-0.315 0.002-1.066 0.237-1.457 0.457-0.245 0.137-0.679 0.449-0.679 0.487 0 0.017 0.124 0.158 0.276 0.313 0.248 0.254 0.274 0.291 0.253 0.371-0.029 0.116-0.236 0.322-0.353 0.352-0.082 0.021-0.117-0.003-0.372-0.257-0.163-0.162-0.297-0.271-0.318-0.258-0.057 0.035-0.338 0.465-0.452 0.69-0.207 0.41-0.465 1.362-0.409 1.508 0.013 0.035 0.097 0.045 0.371 0.045 0.389 0 0.432 0.018 0.472 0.196 0.012 0.055 0.012 0.164 0.001 0.242-0.031 0.209-0.094 0.239-0.492 0.239-0.385 0-0.369-0.022-0.283 0.388 0.126 0.599 0.413 1.198 0.818 1.706l0.063 0.079 0.257-0.232c0.148-0.134 0.286-0.232 0.326-0.232 0.087 0 0.307 0.197 0.359 0.322 0.038 0.091 0.032 0.104-0.123 0.282-0.089 0.102-0.305 0.327-0.479 0.499l-0.317 0.313-0.151-0.129z"></path>
</svg>
