<!-- Generated by IcoMoon.io -->
<svg version="1.1" xmlns="http://www.w3.org/2000/svg" width="33" height="32" viewBox="0 0 33 32">
<title>quota</title>
<path fill="#326ce5" d="M16.381 0.847c-0.292 0.015-0.564 0.088-0.808 0.207l0.012-0.005-10.861 5.189c-0.564 0.274-0.977 0.777-1.121 1.383l-0.003 0.014-2.679 11.657c-0.033 0.138-0.052 0.296-0.052 0.459 0 0.417 0.125 0.804 0.339 1.128l-0.005-0.008c0.041 0.063 0.080 0.117 0.121 0.168l-0.003-0.004 7.517 9.347c0.384 0.474 0.968 0.775 1.623 0.775 0 0 0 0 0 0l12.055-0.003c0 0 0.001 0 0.002 0 0.655 0 1.238-0.3 1.619-0.77l0.003-0.004 7.515-9.348c0.283-0.349 0.454-0.797 0.454-1.285 0-0.163-0.019-0.321-0.055-0.472l0.003 0.014-2.684-11.657c-0.146-0.621-0.56-1.124-1.111-1.392l-0.012-0.005-10.862-5.187c-0.263-0.129-0.573-0.204-0.901-0.204-0.037 0-0.074 0.001-0.111 0.003l0.005-0z"></path>
<path fill="#fff" d="M16.375 0.003c-0.308 0.017-0.594 0.094-0.852 0.22l0.013-0.006-11.466 5.477c-0.595 0.289-1.032 0.82-1.183 1.46l-0.003 0.015-2.828 12.305c-0.035 0.146-0.055 0.313-0.055 0.486 0 0.44 0.132 0.849 0.358 1.191l-0.005-0.008c0.044 0.066 0.085 0.122 0.128 0.177l-0.003-0.004 7.935 9.867c0.405 0.5 1.022 0.818 1.714 0.818 0 0 0 0 0 0l12.726-0.003c0 0 0.001 0 0.002 0 0.691 0 1.307-0.317 1.709-0.813l0.003-0.004 7.933-9.869c0.298-0.368 0.478-0.841 0.478-1.356 0-0.171-0.020-0.338-0.058-0.498l0.003 0.015-2.832-12.307c-0.155-0.655-0.592-1.185-1.173-1.468l-0.013-0.006-11.466-5.477c-0.278-0.136-0.605-0.215-0.951-0.215-0.040 0-0.079 0.001-0.118 0.003l0.005-0zM16.38 0.847c0.032-0.002 0.069-0.003 0.106-0.003 0.328 0 0.638 0.075 0.914 0.209l-0.012-0.005 10.862 5.187c0.564 0.274 0.977 0.777 1.121 1.383l0.003 0.014 2.684 11.657c0.033 0.138 0.052 0.296 0.052 0.458 0 0.488-0.171 0.936-0.457 1.289l0.003-0.004-7.515 9.348c-0.384 0.473-0.968 0.774-1.622 0.774-0.001 0-0.001 0-0.002 0l-12.055 0.003c-0 0-0 0-0 0-0.655 0-1.24-0.301-1.62-0.771l-0.003-0.004-7.517-9.347c-0.038-0.047-0.077-0.101-0.113-0.156l-0.005-0.008c-0.209-0.316-0.334-0.704-0.334-1.12 0-0.163 0.019-0.321 0.055-0.473l-0.003 0.014 2.679-11.657c0.146-0.621 0.56-1.124 1.111-1.392l0.012-0.005 10.861-5.189c0.232-0.114 0.504-0.186 0.791-0.201l0.005-0z"></path>
<path fill="#fff" d="M12.562 5.735c-0.016 0-0.577 0.21-1.246 0.467s-1.243 0.476-1.275 0.487c-0.032 0.012-0.058 0.033-0.058 0.047s0.134 0.375 0.297 0.8c0.163 0.426 0.294 0.789 0.29 0.808-0.005 0.023-0.152 0.090-0.455 0.205-0.247 0.094-0.445 0.181-0.442 0.192 0.010 0.031 3.035 1.381 3.082 1.376 0.032-0.004 0.182-0.323 0.723-1.534 0.375-0.841 0.682-1.542 0.682-1.558s-0.008-0.025-0.018-0.022c-0.369 0.148-0.895 0.336-0.916 0.328-0.016-0.006-0.165-0.368-0.332-0.804-0.196-0.513-0.313-0.794-0.332-0.794zM16.494 9.787c-4.038 0-7.601 2.575-8.873 6.414-0.466 1.405-0.585 2.983-0.336 4.473 0.348 2.090 1.416 4.010 3.026 5.441 0.093 0.082 0.173 0.15 0.179 0.15s0.435-0.425 0.954-0.944c0.529-0.53 0.953-0.971 0.966-1.005 0.055-0.149-0.068-0.42-0.295-0.646-0.234-0.233-0.483-0.348-0.641-0.296-0.042 0.014-0.228 0.184-0.509 0.465-0.243 0.244-0.459 0.443-0.478 0.443-0.041 0-0.275-0.286-0.518-0.633-0.557-0.796-0.962-1.696-1.199-2.665-0.077-0.316-0.179-0.914-0.163-0.959 0.007-0.020 0.163-0.026 0.683-0.026 0.73 0 0.772-0.005 0.858-0.115 0.089-0.114 0.136-0.282 0.147-0.529 0.011-0.263-0.023-0.441-0.113-0.595s-0.088-0.154-0.868-0.154c-0.381-0-0.706-0.009-0.722-0.020-0.026-0.017-0.026-0.063 0.006-0.351 0.134-1.229 0.588-2.486 1.265-3.501 0.157-0.235 0.439-0.601 0.463-0.601 0.013 0 0.273 0.248 0.578 0.552l0.554 0.552 0.114-0.012c0.321-0.033 0.741-0.418 0.831-0.761 0.016-0.060 0.023-0.138 0.015-0.172-0.010-0.046-0.16-0.212-0.563-0.616-0.499-0.501-0.547-0.556-0.52-0.589 0.095-0.116 0.677-0.54 1.058-0.771 0.949-0.577 2.235-1.011 3.215-1.086l0.175-0.013 0.006 0.817 0.006 0.817 0.088 0.082c0.252 0.235 0.936 0.242 1.201 0.013l0.083-0.072 0.010-0.82 0.011-0.82 0.169 0.003c0.207 0.004 0.705 0.089 1.086 0.186 1.095 0.277 2.126 0.791 3.005 1.499 0.111 0.089 0.202 0.178 0.202 0.197s-0.245 0.28-0.543 0.579l-0.543 0.543 0.001 0.121c0.004 0.363 0.497 0.857 0.858 0.859l0.122 0.001 0.544-0.543c0.299-0.299 0.554-0.543 0.567-0.543s0.101 0.104 0.196 0.232c0.732 0.979 1.248 2.168 1.456 3.355 0.072 0.409 0.112 0.823 0.084 0.857-0.020 0.024-0.153 0.029-0.737 0.029h-0.713l-0.062 0.052c-0.136 0.114-0.235 0.474-0.205 0.747 0.024 0.221 0.087 0.397 0.18 0.496l0.081 0.087 0.719 0.006c0.712 0.006 0.719 0.006 0.719 0.050 0 0.098-0.070 0.512-0.138 0.82-0.22 0.995-0.671 2.011-1.254 2.827-0.247 0.346-0.449 0.591-0.486 0.591-0.018 0-0.231-0.199-0.474-0.443-0.5-0.5-0.518-0.512-0.71-0.456-0.343 0.1-0.718 0.514-0.75 0.828l-0.012 0.112 0.834 0.85c1.066 1.087 1.080 1.101 1.13 1.074 0.079-0.043 0.603-0.54 0.83-0.789 0.632-0.693 1.103-1.377 1.507-2.188 0.995-1.998 1.236-4.284 0.683-6.471-0.454-1.793-1.478-3.457-2.889-4.696-1.701-1.494-3.882-2.315-6.148-2.315zM14.73 13.64c-0.371 0.003-0.788 0.215-0.908 0.463-0.041 0.084-0.044 0.107-0.023 0.177 0.013 0.044 0.394 1.033 0.847 2.196l0.823 2.116-0.075 0.152c-0.24 0.485-0.151 1.031 0.231 1.413 0.336 0.336 0.818 0.45 1.259 0.297 0.085-0.030 0.22-0.098 0.298-0.152 0.587-0.401 0.705-1.23 0.253-1.782-0.149-0.182-0.308-0.289-0.618-0.415-0.048-0.019-0.145-0.257-0.884-2.16-0.457-1.176-0.843-2.16-0.859-2.186-0.054-0.087-0.15-0.121-0.345-0.119z"></path>
<path fill="#fff" d="M10.2 25.978c-0.363-0.309-1.092-1.164-1.461-1.714-0.635-0.946-1.164-2.253-1.406-3.474-0.172-0.867-0.157-2.615 0.031-3.493 0.758-3.553 3.353-6.289 6.809-7.178 2.587-0.666 5.272-0.203 7.533 1.3 0.686 0.456 1.866 1.598 2.32 2.246 1.766 2.518 2.227 5.561 1.276 8.413-0.44 1.32-1.133 2.451-2.147 3.504l-0.645 0.67-0.956-0.954c-0.559-0.558-0.956-1.005-0.956-1.077 0-0.303 0.508-0.815 0.809-0.815 0.064 0 0.33 0.207 0.591 0.46 0.553 0.537 0.508 0.546 1.040-0.225 0.681-0.988 1.15-2.176 1.335-3.379l0.042-0.274h-1.492l-0.105-0.204c-0.123-0.238-0.103-0.885 0.033-1.049 0.068-0.082 0.228-0.102 0.819-0.102h0.734v-0.251c0-0.652-0.372-1.979-0.789-2.813-0.219-0.439-0.875-1.451-0.94-1.451-0.024 0-0.295 0.251-0.602 0.557-0.492 0.49-0.58 0.552-0.729 0.514-0.261-0.065-0.673-0.472-0.715-0.706-0.034-0.186 0.009-0.253 0.51-0.784 0.633-0.672 0.642-0.597-0.129-1.13-0.966-0.668-2.396-1.224-3.417-1.329l-0.393-0.040-0.039 0.825c-0.028 0.601-0.065 0.85-0.134 0.92-0.143 0.143-0.678 0.174-0.962 0.055l-0.24-0.1v-1.684l-0.242 0.001c-0.63 0.004-2.131 0.474-2.915 0.914-0.49 0.275-1.359 0.898-1.359 0.974 0 0.034 0.248 0.316 0.552 0.626 0.497 0.508 0.547 0.582 0.507 0.743-0.058 0.232-0.472 0.645-0.705 0.703-0.165 0.041-0.233-0.006-0.744-0.515-0.326-0.325-0.593-0.541-0.635-0.516-0.114 0.070-0.676 0.929-0.903 1.379-0.414 0.821-0.931 2.724-0.818 3.017 0.027 0.070 0.194 0.091 0.742 0.091 0.779 0 0.865 0.036 0.943 0.392 0.024 0.11 0.025 0.328 0.001 0.483-0.063 0.418-0.188 0.479-0.985 0.479-0.77 0-0.738-0.044-0.566 0.777 0.252 1.198 0.826 2.395 1.635 3.413l0.126 0.158 0.515-0.464c0.296-0.267 0.573-0.464 0.651-0.464 0.174 0 0.614 0.395 0.717 0.645 0.076 0.183 0.065 0.209-0.246 0.564-0.179 0.205-0.61 0.653-0.959 0.997l-0.634 0.625-0.302-0.257z"></path>
</svg>
